<svg width="31" height="30" viewBox="0 0 31 30" fill="none" xmlns="http://www.w3.org/2000/svg">
<g id="refresh 1" clip-path="url(#clip0_1_699)">
<g id="Group">
<path id="Vector" d="M9.86463 9.43718C10.6251 8.61684 11.5091 8.00022 12.4509 7.57614C15.5807 6.16687 19.3897 6.89412 21.7576 9.59887L23.3933 8.19762C23.4842 8.11977 23.63 8.19179 23.6387 8.31379L24.0455 13.8017C24.0505 13.8931 23.9662 13.9654 23.88 13.9435L18.5301 12.696C18.4082 12.6652 18.3625 12.5131 18.4534 12.4352L20.0858 11.0367C18.5209 9.26497 16.1035 8.67943 13.9755 9.35994C13.171 9.61576 12.4104 10.0479 11.7561 10.6703C10.8566 11.5253 10.2928 12.6218 10.0695 13.7812C9.95173 14.3998 9.34542 14.7954 8.73261 14.6506C8.14944 14.5142 7.78531 13.9369 7.9007 13.3484C8.17247 11.9168 8.82963 10.5546 9.86463 9.43718ZM21.3205 16.4739C21.1032 17.6338 20.5361 18.733 19.6338 19.5848C18.9764 20.21 18.213 20.6388 17.4145 20.8951C15.2865 21.5756 12.8658 20.9929 11.3042 19.2183L12.9366 17.8198C13.0275 17.742 12.979 17.5866 12.8599 17.5591L7.5072 16.3083C7.4178 16.2892 7.33342 16.3615 7.34169 16.4501L7.7457 21.9348C7.75718 22.06 7.90028 22.1288 7.99115 22.0509L9.62681 20.6497C11.9915 23.3572 15.8033 24.0877 18.9335 22.6724C19.8753 22.2483 20.7565 21.6285 21.5198 20.8114C22.5576 19.6972 23.2147 18.335 23.4865 16.9034C23.5991 16.3116 23.2378 15.7376 22.6546 15.6012C22.0446 15.4596 21.4383 15.8553 21.3205 16.4739Z" fill="#757575" stroke="white" stroke-width="0.3"/>
</g>
</g>
<defs>
<clipPath id="clip0_1_699">
<rect width="20.9964" height="20.9926" fill="white" transform="matrix(0.649713 0.76018 -0.759427 0.650592 16.8421 0.314339)"/>
</clipPath>
</defs>
</svg>
